<svg width="72" height="73" viewBox="0 0 72 73" fill="none" xmlns="http://www.w3.org/2000/svg">
<g clip-path="url(#clip0_2125_398)">
<rect y="0.5" width="72" height="72" rx="36" fill="#E9E7E9"/>
<g clip-path="url(#clip1_2125_398)" filter="url(#filter0_dddd_2125_398)">
<g filter="url(#filter1_ddddd_2125_398)">
<path d="M51.8377 29.0819H45.5238C45.594 29.0225 45.666 28.9649 45.7344 28.9019C46.281 28.4162 46.7216 27.823 47.0285 27.1593C47.3354 26.4957 47.502 25.7758 47.518 25.0448C47.5417 24.245 47.4016 23.4489 47.1065 22.7053C46.8113 21.9616 46.3672 21.2861 45.8016 20.7203C45.2359 20.1545 44.5606 19.7102 43.817 19.4149C43.0735 19.1195 42.2774 18.9792 41.4777 19.0026C40.7463 19.0183 40.0261 19.1849 39.3621 19.4918C38.6981 19.7987 38.1046 20.2394 37.6187 20.7862C36.9464 21.5654 36.3999 22.4447 35.9988 23.3925C35.5978 22.4447 35.0512 21.5654 34.379 20.7862C33.8931 20.2394 33.2996 19.7987 32.6356 19.4918C31.9716 19.1849 31.2514 19.0183 30.52 19.0026C29.7203 18.9792 28.9242 19.1195 28.1806 19.4149C27.4371 19.7102 26.7618 20.1545 26.1961 20.7203C25.6304 21.2861 25.1864 21.9616 24.8912 22.7053C24.5961 23.4489 24.456 24.245 24.4796 25.0448C24.4956 25.7758 24.6623 26.4957 24.9692 27.1593C25.2761 27.823 25.7167 28.4162 26.2633 28.9019C26.3317 28.9613 26.4037 29.0189 26.4739 29.0819H20.16C19.3962 29.0819 18.6637 29.3853 18.1236 29.9253C17.5836 30.4654 17.2802 31.1979 17.2802 31.9617V37.7213C17.2802 38.485 17.5836 39.2175 18.1236 39.7576C18.6637 40.2977 19.3962 40.6011 20.16 40.6011V52.1203C20.16 52.884 20.4634 53.6165 21.0034 54.1566C21.5435 54.6967 22.276 55.0001 23.0397 55.0001H33.839C34.0299 55.0001 34.2131 54.9242 34.3481 54.7892C34.4831 54.6542 34.5589 54.4711 34.5589 54.2801V37.7213H20.16V31.9617H34.5589V37.7213H37.4387V31.9617H51.8377V37.7213H37.4387V54.2801C37.4387 54.4711 37.5146 54.6542 37.6496 54.7892C37.7846 54.9242 37.9677 55.0001 38.1587 55.0001H48.9579C49.7217 55.0001 50.4542 54.6967 50.9943 54.1566C51.5343 53.6165 51.8377 52.884 51.8377 52.1203V40.6011C52.6015 40.6011 53.334 40.2977 53.8741 39.7576C54.4141 39.2175 54.7175 38.485 54.7175 37.7213V31.9617C54.7175 31.1979 54.4141 30.4654 53.8741 29.9253C53.334 29.3853 52.6015 29.0819 51.8377 29.0819ZM28.1712 26.742C27.9194 26.514 27.7175 26.2365 27.5781 25.9267C27.4387 25.617 27.3649 25.2818 27.3612 24.9422C27.3521 24.5442 27.4226 24.1484 27.5684 23.7781C27.7142 23.4077 27.9324 23.0701 28.2103 22.7851C28.4883 22.5002 28.8203 22.2736 29.1869 22.1185C29.5535 21.9635 29.9474 21.8832 30.3454 21.8824H30.4336C30.7733 21.886 31.1085 21.9599 31.4182 22.0993C31.7279 22.2386 32.0055 22.4406 32.2335 22.6923C33.7436 24.3986 34.2764 27.228 34.4636 28.9775C32.7069 28.7921 29.8793 28.2593 28.1712 26.742ZM43.8301 26.742C42.122 28.2539 39.2872 28.7867 37.5305 28.9739C37.7447 27.0822 38.3387 24.3122 39.7786 22.6941C40.0066 22.4424 40.2841 22.2404 40.5939 22.1011C40.9036 21.9617 41.2388 21.8878 41.5785 21.8842H41.6666C42.0647 21.8867 42.4583 21.9686 42.8243 22.1251C43.1903 22.2817 43.5214 22.5097 43.7982 22.7958C44.0749 23.082 44.2918 23.4205 44.436 23.7915C44.5803 24.1625 44.649 24.5586 44.6382 24.9566C44.6324 25.2939 44.5573 25.6264 44.4177 25.9335C44.278 26.2407 44.0768 26.5159 43.8265 26.742H43.8301Z" fill="#D658B3"/>
<path d="M26.3614 24.9591C26.3673 25.4345 26.4711 25.9035 26.6662 26.3371C26.8622 26.7725 27.146 27.1628 27.5 27.4833L27.4999 27.4833L27.5071 27.4897C28.512 28.3823 29.7986 28.9488 31.0087 29.3161C32.2289 29.6865 33.4419 29.8752 34.3586 29.972L35.5896 30.1019L35.4579 28.8711C35.3602 27.9586 35.1711 26.7476 34.8016 25.5286C34.4353 24.32 33.8709 23.0336 32.9824 22.0296L32.9824 22.0295L32.9748 22.0211C32.6542 21.6671 32.264 21.3833 31.8286 21.1873C31.3931 20.9914 30.9219 20.8876 30.4444 20.8824V20.8824H30.4336L30.3454 20.8824L30.3433 20.8824C29.8122 20.8835 29.2866 20.9906 28.7974 21.1975C28.3083 21.4043 27.8653 21.7067 27.4944 22.0869C27.1236 22.4672 26.8324 22.9176 26.6379 23.4118C26.444 23.9041 26.3501 24.4301 26.3614 24.9591ZM26.3614 24.9591C26.3614 24.957 26.3613 24.955 26.3613 24.9529L27.3612 24.9422M26.3614 24.9591C26.3614 24.9611 26.3615 24.963 26.3615 24.965L27.3612 24.9422M27.3612 24.9422C27.3521 24.5442 27.4226 24.1484 27.5684 23.7781C27.7142 23.4077 27.9324 23.0701 28.2103 22.7851C28.4883 22.5002 28.8203 22.2736 29.1869 22.1185C29.5535 21.9635 29.9474 21.8832 30.3454 21.8824H30.4336C30.7733 21.886 31.1085 21.9599 31.4182 22.0993C31.7279 22.2386 32.0055 22.4406 32.2335 22.6923C33.4755 24.0957 34.0564 26.2589 34.3277 27.956C34.4099 27.9658 34.4902 27.9747 34.5685 27.983L34.4636 28.9775L33.4692 29.0839C33.4608 29.0056 33.4518 28.9251 33.4419 28.8428C31.7407 28.5726 29.5768 27.9907 28.1712 26.742C27.9194 26.514 27.7175 26.2365 27.5781 25.9267C27.4387 25.617 27.3649 25.2818 27.3612 24.9422ZM44.8778 28.3185L42.7939 30.0819H45.5238H51.8377C52.3363 30.0819 52.8144 30.2799 53.167 30.6325C53.5195 30.985 53.7175 31.4631 53.7175 31.9617V37.7213C53.7175 38.2198 53.5195 38.698 53.167 39.0505C52.8144 39.403 52.3363 39.6011 51.8377 39.6011H50.8377V40.6011V52.1203C50.8377 52.6188 50.6397 53.0969 50.2872 53.4495C49.9346 53.802 49.4565 54.0001 48.9579 54.0001H38.4387V38.7213H51.8377H52.8377V37.7213V31.9617V30.9617H51.8377H37.4387H36.4387V31.9617V36.7213H35.5589V31.9617V30.9617H34.5589H20.16H19.16V31.9617V37.7213V38.7213H20.16H33.5589V54.0001H23.0397C22.5412 54.0001 22.0631 53.802 21.7105 53.4495L21.0168 54.1432L21.7105 53.4495C21.358 53.0969 21.16 52.6188 21.16 52.1203V40.6011V39.6011H20.16C19.6614 39.6011 19.1833 39.403 18.8307 39.0505L18.1304 39.7509L18.8307 39.0505C18.4782 38.698 18.2802 38.2198 18.2802 37.7213V31.9617C18.2802 31.4631 18.4782 30.985 18.8307 30.6325C19.1833 30.2799 19.6614 30.0819 20.16 30.0819H26.4739H29.0854L27.1418 28.3376C27.0934 28.2942 26.9945 28.2107 26.9461 28.1698C26.935 28.1604 26.9265 28.1532 26.9219 28.1494C26.4807 27.756 26.125 27.2762 25.8769 26.7396C25.6277 26.2008 25.4924 25.6164 25.4794 25.0229L25.4794 25.0229L25.4792 25.0152C25.4596 24.3517 25.5758 23.6912 25.8207 23.0742C26.0656 22.4572 26.434 21.8968 26.9033 21.4273C27.3726 20.9579 27.9329 20.5893 28.5498 20.3442C29.1668 20.0991 29.8272 19.9827 30.4908 20.0021L30.4908 20.0022L30.4985 20.0023C31.0922 20.0151 31.6769 20.1503 32.216 20.3995C32.753 20.6477 33.2331 21.0036 33.6267 21.4451C34.2288 22.1441 34.7184 22.9326 35.0779 23.7822L35.9988 25.9584L36.9198 23.7822C37.2793 22.9326 37.7689 22.1441 38.371 21.4452C38.7646 21.0036 39.2447 20.6477 39.7817 20.3995C40.3207 20.1503 40.9055 20.0151 41.4992 20.0023V20.0024L41.5069 20.0021C42.1704 19.9827 42.8309 20.0991 43.4478 20.3442C44.0648 20.5893 44.6251 20.9579 45.0944 21.4273C45.5637 21.8968 45.9321 22.4572 46.177 23.0742C46.4219 23.6912 46.5381 24.3517 46.5185 25.0152L46.5184 25.0152L46.5183 25.0229C46.513 25.2649 46.4873 25.5055 46.4419 25.742H45.5381C45.5995 25.4927 45.6332 25.2367 45.638 24.9787C45.6517 24.4494 45.5599 23.9226 45.3681 23.4291C45.1756 22.9341 44.8862 22.4824 44.517 22.1006C44.1477 21.7188 43.7059 21.4146 43.2176 21.2057L42.8243 22.1251L43.2176 21.2057C42.7292 20.9968 42.204 20.8875 41.6729 20.8842V20.8842H41.6666H41.5785V20.8841L41.5677 20.8842C41.0902 20.8894 40.619 20.9932 40.1835 21.1891C39.7481 21.3851 39.3578 21.6689 39.0373 22.0229L39.0373 22.0229L39.0315 22.0293C38.1794 22.9869 37.6171 24.2338 37.2409 25.4318C36.8611 26.641 36.6488 27.8727 36.5369 28.8614L36.3966 30.1004L37.6365 29.9682C38.5525 29.8706 39.7667 29.6815 40.9882 29.3118C42.1993 28.9453 43.4878 28.3805 44.4929 27.4908L46.4363 25.7706C46.37 26.1041 46.2643 26.4294 46.1208 26.7396C45.8716 27.2784 45.514 27.76 45.0702 28.1543L45.0635 28.1603L45.0569 28.1663C45.0265 28.1944 45.0021 28.2146 44.9634 28.2468C44.941 28.2655 44.9138 28.2881 44.8778 28.3185Z" stroke="white" stroke-width="2"/>
</g>
</g>
</g>
<defs>
<filter id="filter0_dddd_2125_398" x="-6" y="3" width="84" height="102" filterUnits="userSpaceOnUse" color-interpolation-filters="sRGB">
<feFlood flood-opacity="0" result="BackgroundImageFix"/>
<feColorMatrix in="SourceAlpha" type="matrix" values="0 0 0 0 0 0 0 0 0 0 0 0 0 0 0 0 0 0 127 0" result="hardAlpha"/>
<feOffset dy="2"/>
<feGaussianBlur stdDeviation="2"/>
<feColorMatrix type="matrix" values="0 0 0 0 0 0 0 0 0 0 0 0 0 0 0 0 0 0 0.08 0"/>
<feBlend mode="normal" in2="BackgroundImageFix" result="effect1_dropShadow_2125_398"/>
<feColorMatrix in="SourceAlpha" type="matrix" values="0 0 0 0 0 0 0 0 0 0 0 0 0 0 0 0 0 0 127 0" result="hardAlpha"/>
<feOffset dy="6"/>
<feGaussianBlur stdDeviation="3"/>
<feColorMatrix type="matrix" values="0 0 0 0 0 0 0 0 0 0 0 0 0 0 0 0 0 0 0.07 0"/>
<feBlend mode="normal" in2="effect1_dropShadow_2125_398" result="effect2_dropShadow_2125_398"/>
<feColorMatrix in="SourceAlpha" type="matrix" values="0 0 0 0 0 0 0 0 0 0 0 0 0 0 0 0 0 0 127 0" result="hardAlpha"/>
<feOffset dy="15"/>
<feGaussianBlur stdDeviation="4.5"/>
<feColorMatrix type="matrix" values="0 0 0 0 0 0 0 0 0 0 0 0 0 0 0 0 0 0 0.04 0"/>
<feBlend mode="normal" in2="effect2_dropShadow_2125_398" result="effect3_dropShadow_2125_398"/>
<feColorMatrix in="SourceAlpha" type="matrix" values="0 0 0 0 0 0 0 0 0 0 0 0 0 0 0 0 0 0 127 0" result="hardAlpha"/>
<feOffset dy="26"/>
<feGaussianBlur stdDeviation="5"/>
<feColorMatrix type="matrix" values="0 0 0 0 0 0 0 0 0 0 0 0 0 0 0 0 0 0 0.01 0"/>
<feBlend mode="normal" in2="effect3_dropShadow_2125_398" result="effect4_dropShadow_2125_398"/>
<feBlend mode="normal" in="SourceGraphic" in2="effect4_dropShadow_2125_398" result="shape"/>
</filter>
<filter id="filter1_ddddd_2125_398" x="14.2802" y="18.0001" width="43.4374" height="52" filterUnits="userSpaceOnUse" color-interpolation-filters="sRGB">
<feFlood flood-opacity="0" result="BackgroundImageFix"/>
<feColorMatrix in="SourceAlpha" type="matrix" values="0 0 0 0 0 0 0 0 0 0 0 0 0 0 0 0 0 0 127 0" result="hardAlpha"/>
<feOffset/>
<feGaussianBlur stdDeviation="0.5"/>
<feColorMatrix type="matrix" values="0 0 0 0 0 0 0 0 0 0 0 0 0 0 0 0 0 0 0.29 0"/>
<feBlend mode="normal" in2="BackgroundImageFix" result="effect1_dropShadow_2125_398"/>
<feColorMatrix in="SourceAlpha" type="matrix" values="0 0 0 0 0 0 0 0 0 0 0 0 0 0 0 0 0 0 127 0" result="hardAlpha"/>
<feOffset dy="2"/>
<feGaussianBlur stdDeviation="1"/>
<feColorMatrix type="matrix" values="0 0 0 0 0 0 0 0 0 0 0 0 0 0 0 0 0 0 0.26 0"/>
<feBlend mode="normal" in2="effect1_dropShadow_2125_398" result="effect2_dropShadow_2125_398"/>
<feColorMatrix in="SourceAlpha" type="matrix" values="0 0 0 0 0 0 0 0 0 0 0 0 0 0 0 0 0 0 127 0" result="hardAlpha"/>
<feOffset dy="4"/>
<feGaussianBlur stdDeviation="1.5"/>
<feColorMatrix type="matrix" values="0 0 0 0 0 0 0 0 0 0 0 0 0 0 0 0 0 0 0.15 0"/>
<feBlend mode="normal" in2="effect2_dropShadow_2125_398" result="effect3_dropShadow_2125_398"/>
<feColorMatrix in="SourceAlpha" type="matrix" values="0 0 0 0 0 0 0 0 0 0 0 0 0 0 0 0 0 0 127 0" result="hardAlpha"/>
<feOffset dy="8"/>
<feGaussianBlur stdDeviation="1.5"/>
<feColorMatrix type="matrix" values="0 0 0 0 0 0 0 0 0 0 0 0 0 0 0 0 0 0 0.04 0"/>
<feBlend mode="normal" in2="effect3_dropShadow_2125_398" result="effect4_dropShadow_2125_398"/>
<feColorMatrix in="SourceAlpha" type="matrix" values="0 0 0 0 0 0 0 0 0 0 0 0 0 0 0 0 0 0 127 0" result="hardAlpha"/>
<feOffset dy="12"/>
<feGaussianBlur stdDeviation="1.5"/>
<feColorMatrix type="matrix" values="0 0 0 0 0 0 0 0 0 0 0 0 0 0 0 0 0 0 0.01 0"/>
<feBlend mode="normal" in2="effect4_dropShadow_2125_398" result="effect5_dropShadow_2125_398"/>
<feBlend mode="normal" in="SourceGraphic" in2="effect5_dropShadow_2125_398" result="shape"/>
</filter>
<clipPath id="clip0_2125_398">
<rect y="0.5" width="72" height="72" rx="36" fill="white"/>
</clipPath>
<clipPath id="clip1_2125_398">
<rect width="64" height="64" fill="white" transform="translate(4 5)"/>
</clipPath>
</defs>
</svg>
