<svg width="64" height="64" viewBox="0 0 64 64" fill="none" xmlns="http://www.w3.org/2000/svg">
<g clip-path="url(#clip0_2130_510)">
<g filter="url(#filter0_ddddd_2130_510)">
<path d="M49.475 27.5036C48.8018 26.8001 48.1054 26.0751 47.8429 25.4376C47.6 24.8536 47.5857 23.8858 47.5714 22.9483C47.5446 21.2054 47.5161 19.2304 46.1429 17.8572C44.7696 16.484 42.7946 16.4554 41.0518 16.4286C40.1143 16.4143 39.1464 16.4001 38.5625 16.1572C37.9268 15.8947 37.2 15.1983 36.4964 14.5251C35.2643 13.3411 33.8643 12.0001 32 12.0001C30.1357 12.0001 28.7375 13.3411 27.5036 14.5251C26.8 15.1983 26.075 15.8947 25.4375 16.1572C24.8571 16.4001 23.8857 16.4143 22.9482 16.4286C21.2054 16.4554 19.2304 16.484 17.8571 17.8572C16.4839 19.2304 16.4643 21.2054 16.4286 22.9483C16.4143 23.8858 16.4 24.8536 16.1571 25.4376C15.8946 26.0733 15.1982 26.8001 14.525 27.5036C13.3411 28.7358 12 30.1358 12 32.0001C12 33.8643 13.3411 35.2626 14.525 36.4965C15.1982 37.2001 15.8946 37.9251 16.1571 38.5626C16.4 39.1465 16.4143 40.1143 16.4286 41.0518C16.4554 42.7947 16.4839 44.7697 17.8571 46.1429C19.2304 47.5161 21.2054 47.5447 22.9482 47.5715C23.8857 47.5858 24.8536 47.6001 25.4375 47.8429C26.0732 48.1054 26.8 48.8018 27.5036 49.4751C28.7357 50.659 30.1357 52.0001 32 52.0001C33.8643 52.0001 35.2625 50.659 36.4964 49.4751C37.2 48.8018 37.925 48.1054 38.5625 47.8429C39.1464 47.6001 40.1143 47.5858 41.0518 47.5715C42.7946 47.5447 44.7696 47.5161 46.1429 46.1429C47.5161 44.7697 47.5446 42.7947 47.5714 41.0518C47.5857 40.1143 47.6 39.1465 47.8429 38.5626C48.1054 37.9268 48.8018 37.2001 49.475 36.4965C50.6589 35.2643 52 33.8643 52 32.0001C52 30.1358 50.6589 28.7376 49.475 27.5036ZM40.1536 28.7251L30.1536 38.7251C30.0209 38.8579 29.8633 38.9633 29.6899 39.0351C29.5165 39.107 29.3306 39.144 29.1429 39.144C28.9551 39.144 28.7692 39.107 28.5958 39.0351C28.4224 38.9633 28.2648 38.8579 28.1321 38.7251L23.8464 34.4393C23.5784 34.1713 23.4278 33.8077 23.4278 33.4286C23.4278 33.0495 23.5784 32.686 23.8464 32.4179C24.1145 32.1499 24.4781 31.9993 24.8571 31.9993C25.2362 31.9993 25.5998 32.1499 25.8679 32.4179L29.1429 35.6947L38.1321 26.7036C38.2649 26.5709 38.4224 26.4656 38.5959 26.3938C38.7693 26.322 38.9551 26.285 39.1429 26.285C39.3306 26.285 39.5164 26.322 39.6898 26.3938C39.8633 26.4656 40.0208 26.5709 40.1536 26.7036C40.2863 26.8364 40.3916 26.9939 40.4634 27.1674C40.5352 27.3408 40.5722 27.5266 40.5722 27.7143C40.5722 27.9021 40.5352 28.0879 40.4634 28.2613C40.3916 28.4348 40.2863 28.5923 40.1536 28.7251Z" fill="#45B442"/>
<path d="M48.7534 28.196L48.7525 28.195L48.7262 28.1676C48.4025 27.8293 48.0458 27.4565 47.737 27.0864C47.4269 26.7146 47.1084 26.2802 46.9182 25.8183C46.7359 25.3785 46.6626 24.8646 46.6248 24.4079C46.5865 23.9437 46.5788 23.4412 46.5719 22.9866L46.5715 22.9636C46.5715 22.9636 46.5715 22.9636 46.5715 22.9635C46.5434 21.1303 46.4746 19.6032 45.4357 18.5643C44.3969 17.5255 42.8697 17.4567 41.0365 17.4285C41.0365 17.4285 41.0365 17.4285 41.0364 17.4285L41.0137 17.4282C40.559 17.4212 40.0564 17.4136 39.5922 17.3752C39.1348 17.3374 38.6199 17.2639 38.1797 17.081C37.7197 16.8908 37.286 16.5729 36.9145 16.2632C36.5409 15.9517 36.1646 15.5916 35.8235 15.2652L35.8051 15.2476L35.8036 15.2461C34.5041 13.9975 33.3933 13.0001 32 13.0001C30.6067 13.0001 29.4982 13.9971 28.1959 15.2466L28.1949 15.2476L28.1675 15.2738C27.8292 15.5975 27.4565 15.9542 27.0864 16.263C26.7153 16.5726 26.2818 16.8905 25.8208 17.0808C25.3813 17.2642 24.8657 17.3375 24.4091 17.3752C23.9446 17.4136 23.4414 17.4212 22.9869 17.4282L22.9636 17.4285C22.9635 17.4285 22.9635 17.4285 22.9634 17.4285C21.1303 17.4567 19.6031 17.5255 18.5642 18.5643C17.526 19.6026 17.4662 21.1242 17.4284 22.9662C17.4284 22.9671 17.4284 22.9679 17.4284 22.9688L17.4281 22.9864C17.4212 23.4411 17.4135 23.9437 17.3752 24.4079C17.3374 24.8653 17.2638 25.3801 17.081 25.8204C16.8908 26.2804 16.5729 26.714 16.2631 27.0855C15.9517 27.4591 15.5915 27.8355 15.2652 28.1765L15.2475 28.195L15.2461 28.1965C13.9974 29.496 13 30.6068 13 32.0001C13 33.3933 13.9971 34.5019 15.2466 35.8041L15.2475 35.8051L15.2738 35.8326C15.5974 36.1708 15.9542 36.5436 16.2629 36.9137C16.5731 37.2855 16.8916 37.7199 17.0818 38.1818C17.264 38.6216 17.3374 39.1355 17.3752 39.5922C17.4135 40.0565 17.4212 40.559 17.4281 41.0137L17.4285 41.0365C17.4285 41.0365 17.4285 41.0366 17.4285 41.0366C17.4566 42.8698 17.5254 44.397 18.5642 45.4358C19.6031 46.4747 21.1303 46.5434 22.9635 46.5716C22.9635 46.5716 22.9635 46.5716 22.9636 46.5716L22.9865 46.572C23.4411 46.5789 23.9436 46.5865 24.4078 46.6249C24.8648 46.6627 25.3792 46.7361 25.8192 46.9186L48.7534 28.196ZM48.7534 28.196C50.0029 29.4982 51 30.6068 51 32.0001C51 33.3933 50.0026 34.5041 48.7539 35.8036L48.7525 35.8051M48.7534 28.196L48.7525 35.8051M28.1949 48.7525L28.1964 48.754C29.4959 50.0026 30.6067 51.0001 32 51.0001C33.3933 51.0001 34.5018 50.003 35.8041 48.7535L35.8051 48.7525L35.8325 48.7263C36.1707 48.4026 36.5435 48.0459 36.9136 47.7371C37.2854 47.4269 37.7198 47.1084 38.1817 46.9182C38.6216 46.736 39.1355 46.6626 39.5922 46.6249C40.0563 46.5865 40.5589 46.5789 41.0135 46.572L41.0364 46.5716C41.0365 46.5716 41.0365 46.5716 41.0365 46.5716C42.8697 46.5434 44.3969 46.4747 45.4357 45.4358C46.4746 44.397 46.5434 42.8698 46.5715 41.0366C46.5715 41.0366 46.5715 41.0365 46.5715 41.0365L46.5719 41.0136C46.5788 40.5589 46.5865 40.0564 46.6248 39.5922C46.6626 39.1352 46.736 38.6209 46.9186 38.1809L28.1949 48.7525ZM28.1949 48.7525L28.1765 48.7349M28.1949 48.7525L28.1765 48.7349M48.7525 35.8051L48.7349 35.8236M48.7525 35.8051L48.7349 35.8236M28.1765 48.7349C27.8354 48.4085 27.4591 48.0484 27.0855 47.7369M28.1765 48.7349L27.0855 47.7369M27.0855 47.7369C26.7137 47.4269 26.2797 47.1088 25.8193 46.9187L27.0855 47.7369ZM48.7349 35.8236C48.4085 36.1646 48.0483 36.541 47.7368 36.9146M48.7349 35.8236L47.7368 36.9146M47.7368 36.9146C47.4269 37.2864 47.1087 37.7204 46.9186 38.1808L47.7368 36.9146ZM26.5752 31.711L26.575 31.7108C26.1194 31.2552 25.5014 30.9993 24.8571 30.9993C24.2128 30.9993 23.5949 31.2552 23.1393 31.7108C22.6837 32.1664 22.4278 32.7843 22.4278 33.4286C22.4278 34.0729 22.6837 34.6909 23.1393 35.1465L27.4246 39.4318C27.6502 39.6576 27.918 39.8367 28.2129 39.9589C28.5077 40.0811 28.8237 40.144 29.1429 40.144C29.462 40.144 29.778 40.0811 30.0729 39.9589C30.3675 39.8368 30.6352 39.6578 30.8607 39.4322C30.8608 39.432 30.8609 39.4319 30.8611 39.4318L40.8607 29.4322C41.0863 29.2066 41.2652 28.9388 41.3873 28.644C41.5094 28.3493 41.5722 28.0334 41.5722 27.7143C41.5722 27.3953 41.5094 27.0794 41.3873 26.7847C41.2652 26.4899 41.0863 26.2221 40.8607 25.9965C40.6351 25.7709 40.3673 25.592 40.0725 25.4699C39.7778 25.3478 39.4619 25.285 39.1429 25.285C38.8238 25.285 38.5079 25.3478 38.2132 25.4699L38.5959 26.3938L38.2132 25.4699C37.9184 25.592 37.6506 25.7709 37.425 25.9965L37.425 25.9966L29.143 34.2802L26.5752 31.711Z" stroke="white" stroke-width="2"/>
</g>
</g>
<defs>
<filter id="filter0_ddddd_2130_510" x="9" y="11.0001" width="46" height="56" filterUnits="userSpaceOnUse" color-interpolation-filters="sRGB">
<feFlood flood-opacity="0" result="BackgroundImageFix"/>
<feColorMatrix in="SourceAlpha" type="matrix" values="0 0 0 0 0 0 0 0 0 0 0 0 0 0 0 0 0 0 127 0" result="hardAlpha"/>
<feOffset/>
<feGaussianBlur stdDeviation="0.5"/>
<feColorMatrix type="matrix" values="0 0 0 0 0 0 0 0 0 0 0 0 0 0 0 0 0 0 0.29 0"/>
<feBlend mode="normal" in2="BackgroundImageFix" result="effect1_dropShadow_2130_510"/>
<feColorMatrix in="SourceAlpha" type="matrix" values="0 0 0 0 0 0 0 0 0 0 0 0 0 0 0 0 0 0 127 0" result="hardAlpha"/>
<feOffset dy="2"/>
<feGaussianBlur stdDeviation="1"/>
<feColorMatrix type="matrix" values="0 0 0 0 0 0 0 0 0 0 0 0 0 0 0 0 0 0 0.26 0"/>
<feBlend mode="normal" in2="effect1_dropShadow_2130_510" result="effect2_dropShadow_2130_510"/>
<feColorMatrix in="SourceAlpha" type="matrix" values="0 0 0 0 0 0 0 0 0 0 0 0 0 0 0 0 0 0 127 0" result="hardAlpha"/>
<feOffset dy="4"/>
<feGaussianBlur stdDeviation="1.5"/>
<feColorMatrix type="matrix" values="0 0 0 0 0 0 0 0 0 0 0 0 0 0 0 0 0 0 0.15 0"/>
<feBlend mode="normal" in2="effect2_dropShadow_2130_510" result="effect3_dropShadow_2130_510"/>
<feColorMatrix in="SourceAlpha" type="matrix" values="0 0 0 0 0 0 0 0 0 0 0 0 0 0 0 0 0 0 127 0" result="hardAlpha"/>
<feOffset dy="8"/>
<feGaussianBlur stdDeviation="1.5"/>
<feColorMatrix type="matrix" values="0 0 0 0 0 0 0 0 0 0 0 0 0 0 0 0 0 0 0.04 0"/>
<feBlend mode="normal" in2="effect3_dropShadow_2130_510" result="effect4_dropShadow_2130_510"/>
<feColorMatrix in="SourceAlpha" type="matrix" values="0 0 0 0 0 0 0 0 0 0 0 0 0 0 0 0 0 0 127 0" result="hardAlpha"/>
<feOffset dy="12"/>
<feGaussianBlur stdDeviation="1.5"/>
<feColorMatrix type="matrix" values="0 0 0 0 0 0 0 0 0 0 0 0 0 0 0 0 0 0 0.01 0"/>
<feBlend mode="normal" in2="effect4_dropShadow_2130_510" result="effect5_dropShadow_2130_510"/>
<feBlend mode="normal" in="SourceGraphic" in2="effect5_dropShadow_2130_510" result="shape"/>
</filter>
<clipPath id="clip0_2130_510">
<rect width="64" height="64" fill="white"/>
</clipPath>
</defs>
</svg>
